<svg width="30" height="30" viewBox="0 0 30 30" fill="none" xmlns="http://www.w3.org/2000/svg">
<path d="M10.056 9.06703H7.69559L7.04443 10.7768L5.40176 10.1511L8.15414 2.92436L9.61605 2.92283L12.3045 10.0466H17.7858V0H0V15.1266H2.68963V18.2542L6.87105 15.1266H10.5149V10.2833L10.056 9.06703Z" fill="white"/>
<path d="M8.36508 7.30932H9.39264L8.88123 5.95422L8.36508 7.30932Z" fill="white"/>
<path d="M20.8044 21.5022C21.1054 21.5022 21.3924 21.4416 21.6542 21.3323L20.6993 20.3773L21.9422 19.1344L22.876 20.0681C22.9676 19.8255 23.0181 19.5628 23.0181 19.2885C23.0181 18.0679 22.0251 17.0748 20.8044 17.0748C19.5838 17.0748 18.5908 18.0679 18.5908 19.2885C18.5908 20.5091 19.5838 21.5022 20.8044 21.5022Z" fill="white"/>
<path d="M12.2142 11.7458V26.8725H23.129L27.3104 30V26.8725H30V11.7458H12.2142ZM20.8044 15.3171C22.9943 15.3171 24.7759 17.0987 24.7759 19.2886C24.7759 20.0533 24.5581 20.7678 24.1821 21.3745L25.3812 22.5736L24.1382 23.8165L22.9498 22.6281C22.3306 23.0273 21.5944 23.2601 20.8044 23.2601C18.6145 23.2601 16.8329 21.4785 16.8329 19.2886C16.8329 17.0987 18.6145 15.3171 20.8044 15.3171Z" fill="white"/>
</svg>
