<svg width="30" height="30" viewBox="0 0 30 30" fill="none" xmlns="http://www.w3.org/2000/svg">
<path d="M6.34975 10.2153C6.75363 9.57527 7.22824 8.98078 7.77064 8.43838C8.70902 7.5 9.80221 6.76307 11.0198 6.24803C12.2814 5.71441 13.6205 5.44389 14.9999 5.44389C16.3794 5.44389 17.7185 5.71447 18.98 6.24803C20.1977 6.76307 21.2909 7.5 22.2292 8.43838C22.7716 8.98078 23.2463 9.57527 23.6501 10.2153H30V6.26361C30 2.8098 27.1902 0 23.7364 0H6.26356C2.8098 0 0 2.8098 0 6.26355V10.2152H6.34975V10.2153ZM25.7899 5.98518H24.0321V4.22736H25.7899V5.98518Z" fill="white"/>
<path d="M24.5348 11.9731C24.9919 13.1506 25.2238 14.3918 25.2238 15.6677C25.2238 17.0472 24.9533 18.3863 24.4196 19.6478C23.9046 20.8655 23.1677 21.9587 22.2293 22.897C21.2909 23.8354 20.1977 24.5724 18.9801 25.0874C17.7185 25.621 16.3794 25.8915 15 25.8915C13.6206 25.8915 12.2815 25.6209 11.0199 25.0874C9.80227 24.5724 8.70902 23.8354 7.7707 22.897C6.83232 21.9587 6.09539 20.8655 5.58035 19.6478C5.04674 18.3863 4.77621 17.0472 4.77621 15.6677C4.77621 14.3919 5.00818 13.1506 5.46516 11.9731H0V23.7365C0 27.1902 2.8098 30 6.26356 30H23.7364C27.1902 30 30 27.1902 30 23.7365V11.9731H24.5348Z" fill="white"/>
<path d="M15 12.0865C13.0254 12.0865 11.4189 13.6931 11.4189 15.6677C11.4189 17.6423 13.0254 19.2488 15 19.2488C16.9746 19.2488 18.5811 17.6423 18.5811 15.6677C18.5811 13.6931 16.9746 12.0865 15 12.0865Z" fill="white"/>
<path d="M15 7.20169C10.3244 7.20169 6.53406 10.9921 6.53406 15.6677C6.53406 20.3433 10.3244 24.1337 15 24.1337C19.6757 24.1337 23.466 20.3433 23.466 15.6677C23.466 10.9921 19.6757 7.20169 15 7.20169ZM20.339 15.6677C20.339 18.6116 17.944 21.0066 15 21.0066C12.0561 21.0066 9.66109 18.6116 9.66109 15.6677C9.66109 12.7238 12.0561 10.3288 15 10.3288C17.944 10.3288 20.339 12.7237 20.339 15.6677Z" fill="white"/>
</svg>
