<svg width="42" height="31" viewBox="0 0 42 31" fill="none" xmlns="http://www.w3.org/2000/svg">
<path d="M41.63 2.14978L28.8923 15.0449L41.63 27.94C41.8603 27.4496 42 26.9075 42 26.3286V3.76118C42 3.1822 41.8603 2.64016 41.63 2.14978Z" fill="white"/>
<path d="M38.3086 0H3.69139C3.12316 0 2.59119 0.142342 2.10991 0.37696L18.3901 16.8815C19.8296 18.3482 22.1704 18.3482 23.6099 16.8815L39.8901 0.37696C39.4088 0.142342 38.8768 0 38.3086 0Z" fill="white"/>
<path d="M0.369961 2.14978C0.139699 2.64016 0 3.1822 0 3.76118V26.3286C0 26.9076 0.139699 27.4497 0.369961 27.94L13.1077 15.0449L0.369961 2.14978Z" fill="white"/>
<path d="M27.1523 16.818L25.3499 18.6546C22.9513 21.0984 19.0485 21.0984 16.65 18.6546L14.8476 16.818L2.10991 29.7131C2.59119 29.9477 3.12316 30.0901 3.69139 30.0901H38.3086C38.8768 30.0901 39.4088 29.9477 39.8901 29.7131L27.1523 16.818Z" fill="white"/>
</svg>
