<svg width="43" height="30" viewBox="0 0 43 30" fill="none" xmlns="http://www.w3.org/2000/svg">
<path d="M42.2906 2.1434L29.3508 14.9999L42.2906 27.8565C42.5246 27.3675 42.6665 26.8271 42.6665 26.2499V3.74998C42.6665 3.17273 42.5246 2.63232 42.2906 2.1434Z" fill="white"/>
<path d="M38.9165 0H3.74995C3.1727 0 2.63229 0.141916 2.14337 0.375832L18.6819 16.831C20.1442 18.2933 22.5222 18.2933 23.9845 16.831L40.523 0.375832C40.0341 0.141916 39.4937 0 38.9165 0Z" fill="white"/>
<path d="M0.375832 2.1434C0.141916 2.63232 0 3.17273 0 3.74998V26.2499C0 26.8271 0.141916 27.3676 0.375832 27.8565L13.3157 14.9999L0.375832 2.1434Z" fill="white"/>
<path d="M27.5832 16.7676L25.7521 18.5987C23.3155 21.0353 19.3508 21.0353 16.9142 18.5987L15.0832 16.7676L2.14337 29.6242C2.63229 29.8581 3.1727 30 3.74995 30H38.9165C39.4937 30 40.0341 29.8581 40.523 29.6242L27.5832 16.7676Z" fill="white"/>
</svg>
