<svg width="30" height="31" viewBox="0 0 30 31" fill="none" xmlns="http://www.w3.org/2000/svg">
<path d="M29.5368 1.10648C29.1703 0.576786 28.6215 0.285156 27.9911 0.285156C27.6485 0.285156 27.2855 0.370373 26.9124 0.538912L1.51799 11.9966C0.170335 12.6045 -0.0111681 13.5167 0.000504848 14.0064C0.0121778 14.496 0.237169 15.3947 1.61183 15.9117C1.62007 15.9147 1.62831 15.9177 1.63655 15.9204L6.90404 17.7021L9.7527 27.3302C10.1411 28.6428 11.0129 29.4581 12.0282 29.4581C12.6684 29.4581 13.2981 29.1411 13.8492 28.5416L17.1074 24.9958L21.8331 29.4933C21.8335 29.4939 21.8342 29.4941 21.8347 29.4947L21.8795 29.5374C21.8837 29.5412 21.888 29.5453 21.8921 29.549C22.4174 30.0306 22.9908 30.2849 23.5508 30.2852H23.5511C24.6454 30.2852 25.5167 29.3278 25.7705 27.8463L29.9314 3.56261C30.0985 2.5879 29.9584 1.71571 29.5368 1.10648ZM8.6662 17.3636L18.8288 11.2272L12.5009 19.1745C12.3972 19.3047 12.3237 19.464 12.2876 19.6374L11.0674 25.4792L8.6662 17.3636ZM12.6584 27.0131C12.6162 27.0588 12.5739 27.0997 12.5316 27.1373L13.6636 21.7181L15.7229 23.678L12.6584 27.0131ZM28.2086 3.15005L24.0477 27.4341C24.0077 27.6664 23.8797 28.2072 23.5508 28.2072C23.3883 28.2072 23.1842 28.1025 22.9752 27.9123L17.6203 22.8161C17.6196 22.8153 17.6187 22.8145 17.6178 22.814L14.4315 19.7813L23.5824 8.28847C23.8754 7.92056 23.9019 7.35704 23.6454 6.95287C23.3886 6.54871 22.9232 6.42156 22.5426 6.65151L7.49181 15.7396L2.15268 13.9341L27.5393 2.47995C27.7538 2.38311 27.9035 2.36282 27.9911 2.36282C28.0449 2.36282 28.1406 2.37039 28.1761 2.42206C28.2228 2.48942 28.2823 2.7191 28.2086 3.15005Z" fill="white"/>
</svg>
