<svg width="43" height="31" viewBox="0 0 43 31" fill="none" xmlns="http://www.w3.org/2000/svg">
<path d="M42.114 5.58344C41.6185 3.74783 40.1661 2.30084 38.3242 1.80657C34.9594 0.88916 21.4995 0.88916 21.4995 0.88916C21.4995 0.88916 8.04021 0.88916 4.67531 1.77179C2.86886 2.26554 1.38102 3.7481 0.885512 5.58344C0 8.93613 0 15.8892 0 15.8892C0 15.8892 0 22.8772 0.885512 26.1949C1.38155 28.0302 2.83343 29.4772 4.67558 29.9715C8.07564 30.8892 21.5 30.8892 21.5 30.8892C21.5 30.8892 34.9594 30.8892 38.3242 30.0065C40.1664 29.5125 41.6185 28.0655 42.1146 26.2302C42.9998 22.8772 42.9998 15.9245 42.9998 15.9245C42.9998 15.9245 43.0353 8.93613 42.114 5.58344ZM17.2142 22.3126V9.46571L28.4067 15.8892L17.2142 22.3126Z" fill="white"/>
</svg>
