<svg width="43" height="30" viewBox="0 0 43 30" fill="none" xmlns="http://www.w3.org/2000/svg">
<path d="M41.9645 4.69428C41.4708 2.85867 40.0235 1.41168 38.1882 0.917412C34.8352 0 21.4232 0 21.4232 0C21.4232 0 8.01166 0 4.65872 0.88263C2.85867 1.37638 1.37612 2.85894 0.882368 4.69428C0 8.04697 0 15 0 15C0 15 0 21.9881 0.882368 25.3057C1.37664 27.1411 2.82337 28.5881 4.65898 29.0823C8.04697 30 21.4237 30 21.4237 30C21.4237 30 34.8352 30 38.1882 29.1174C40.0238 28.6234 41.4708 27.1764 41.965 25.341C42.8472 21.9881 42.8472 15.0353 42.8472 15.0353C42.8472 15.0353 42.8825 8.04697 41.9645 4.69428ZM17.1531 21.4235V8.57655L28.3059 15L17.1531 21.4235Z" fill="white"/>
</svg>
